# xmcd CD database file
#
# Track frame offsets:
#	150
#	12967
#	27970
#	44730
#	56550
#	67182
#	81362
#	92197
#	105982
#	120172
#	134082
#	143555
#	155337
#	166612
#	177235
#	188145
#	201422
#	213432
#	225675
#	236932
#	248452
#	264397
#	280120
#
# Disc length: 3891 seconds
#
# Revision: 0
# Processed by: cddbd v1.4PL0 Copyright (c) Steve Scherf et al.
# Submitted via: CDex 1.50
#
DISCID=430f3117
DTITLE=Various Artist - Elko Blues (Vol 3)
DYEAR=1900
DGENRE=Vintage R&B
TTITLE0=Lowell Fulson - Tryin' To Find My Baby
TTITLE1=Lowell Fulson - Wicked Old World
TTITLE2=George 'Harmonica' Smith - Just Bluesin'
TTITLE3=Ray Agee - I Gotta Have Your Lovin' Tonight
TTITLE4=Ray Agee - Rock Head
TTITLE5=Ray Agee and Wilmagene Hill - Love's Limit
TTITLE6=Ray Agee - Look At Them Eyes
TTITLE7=Ray Agee - Black Night Is Gone
TTITLE8=Ray Agee - I Brought It All On Myself
TTITLE9=Jimmy McCracklin - Miss Mattie Left Me
TTITLE10=Jimmy McCracklin - Baby Don't You Want To Go
TTITLE11=Jimmy McCracklin - Mean Mistreated Lover
TTITLE12=Jimmy McCracklin - Special For You
TTITLE13=Jimmy McCracklin - Highway 101
TTITLE14=Jimmy McCracklin - You Had Your Chance
TTITLE15=Jimmy McCracklin - You Deceived Me
TTITLE16=Jimmy McCracklin - Rock and Rye (Pt 1)
TTITLE17=Jimmy McCracklin - Rock and Rye (Pt 2)
TTITLE18=James Butler (AKA Black Diamond) - Lonesome Blues
TTITLE19=John Hogg - Worrying Blues
TTITLE20=Norman 'Slim' Green and R. Turner - Central Avenue Blues
TTITLE21=Norman 'Slim' Green and R. Turner - Alla Blues
TTITLE22=Goldrush - All My Money Gone
EXTD=
EXTT0=
EXTT1=
EXTT2=
EXTT3=
EXTT4=
EXTT5=
EXTT6=
EXTT7=
EXTT8=
EXTT9=
EXTT10=
EXTT11=
EXTT12=
EXTT13=
EXTT14=
EXTT15=
EXTT16=
EXTT17=
EXTT18=
EXTT19=
EXTT20=
EXTT21=
EXTT22=
PLAYORDER=
